<?xml version="1.0" standalone="no"?><!DOCTYPE svg PUBLIC "-//W3C//DTD SVG 1.1//EN" "http://www.w3.org/Graphics/SVG/1.1/DTD/svg11.dtd"><svg t="1669700676538" class="icon" viewBox="0 0 1024 1024" version="1.1" xmlns="http://www.w3.org/2000/svg" p-id="2118" xmlns:xlink="http://www.w3.org/1999/xlink" width="200" height="200"><path d="M512 352V160h32v192h128v128h192v32h-192v128h-128v256h-32v-256h-128v-128H160v-32h224v-128h128z m0 32h-96v96h96v-96z m32 0v96h96v-96h-96z m96 128h-96v96h96v-96z m-128 96v-96h-96v96h96zM128 320H96V128a32 32 0 0 1 32-32h192v32H128v192z m0 384v192h192v32H128a32 32 0 0 1-32-32v-192h32z m576 192h192v-192h32v192a32 32 0 0 1-32 32h-192v-32z m192-576V128h-192V96h192a32 32 0 0 1 32 32v192h-32z" p-id="2119"></path></svg>