<?xml version="1.0" standalone="no"?><!DOCTYPE svg PUBLIC "-//W3C//DTD SVG 1.1//EN" "http://www.w3.org/Graphics/SVG/1.1/DTD/svg11.dtd"><svg t="1673848244215" class="icon" viewBox="0 0 1024 1024" version="1.1" xmlns="http://www.w3.org/2000/svg" p-id="2668" xmlns:xlink="http://www.w3.org/1999/xlink" width="200" height="200"><path d="M271.960276 772.802207a14.830345 14.830345 0 0 1-10.487173-25.317517l231.070897-231.000276L249.644138 276.48a14.830345 14.830345 0 0 1 20.868414-21.044966l242.935172 240.039725 240.039724-240.004414a14.971586 14.971586 0 0 1 20.974345 0 14.900966 14.900966 0 0 1 0 20.974345l-239.898483 239.933793 233.931035 231.070896a14.830345 14.830345 0 0 1-20.868414 21.115587l-234.036965-231.282759-231.141518 231.176827a14.724414 14.724414 0 0 1-10.487172 4.343173z" fill="#656565" p-id="2669"></path></svg>